<svg enable-background="new 0 0 512 512" viewBox="0 0 512 512" xmlns="http://www.w3.org/2000/svg"><g id="_x32_9_Paper_Plane"><g><path d="m408.125 267.269c2.246 0 4.264-1.564 4.753-3.851l11.898-55.997c.556-2.628-1.12-5.208-3.746-5.766-2.64-.565-5.204 1.12-5.769 3.744l-11.898 55.997c-.556 2.628 1.12 5.208 3.746 5.766.342.073.684.107 1.016.107z"/><path d="m489.267 9.352c-1.376-1.285-3.606-1.574-5.08-.99l-388.083 153.969c-1.818.724-3.029 2.469-3.067 4.427-.038 1.959 1.106 3.748 2.896 4.541l112.052 49.468 30.773 107.018c.354 1.24 1.649 2.763 3.192 3.262 1.801.578 3.901-.05 5.069-1.324l66.192-72.404 111.042 42.497c1.292.493 2.771.429 4.059-.271 1.249-.679 2.137-1.871 2.436-3.259l59.99-282.392c.289-1.368-.097-3.263-1.471-4.542zm-35.633 21.593c-21.207 15.82-210.903 157.322-242.238 180.697l-100.915-44.551zm-9.691 19.362-173.345 183.51c-.353.483-.825 1.053-1.064 1.757l-25.691 74.713-26.213-91.164zm-188.301 255.571 21.45-62.383 26.36 10.088zm166.774-17.177c-14.118-5.403-123.287-47.184-139.762-53.49 49.339-52.232 148.229-156.919 194.976-206.407z"/><path d="m225.536 339.318c-2.578 2.592-5.27 5.491-8.465 9.125-1.776 2.013-1.581 5.085.432 6.861 2.031 1.786 5.1 1.566 6.861-.434 3.067-3.483 5.631-6.243 8.067-8.691 1.894-1.904 1.885-4.983-.019-6.877-1.905-1.891-4.982-1.883-6.876.016z"/><path d="m141.18 403.032c8.348.683 17.241.303 25.525-1.652 2.616-.617 4.235-3.236 3.618-5.849-.622-2.614-3.248-4.252-5.849-3.613-6.699 1.581-14.41 2.08-22.505 1.424-2.611-.221-5.023 1.773-5.242 4.451-.219 2.675 1.776 5.02 4.453 5.239z"/><path d="m121.852 414.897c2.373 1.211 5.319.28 6.538-2.125 3.789-7.43 6.695-15.419 8.641-23.749.612-2.614-1.011-5.23-3.627-5.84-2.607-.617-5.232 1.011-5.84 3.627-1.771 7.566-4.406 14.816-7.834 21.546-1.221 2.394-.271 5.321 2.122 6.541z"/><path d="m117.996 292.85c-1.79-2.008-4.867-2.177-6.861-.394-2.008 1.788-2.184 4.862-.394 6.865 4.539 5.09 8.394 11.547 11.461 19.191.99 2.473 3.804 3.708 6.319 2.702 2.493-.999 3.703-3.832 2.702-6.324-3.484-8.691-7.937-16.107-13.227-22.04z"/><path d="m68.728 280.831c-2.402 1.201-3.376 4.121-2.175 6.524 1.217 2.423 4.156 3.362 6.524 2.17 6.096-3.048 13.18-3.691 20.027-1.771 2.569.726 5.265-.779 5.992-3.369.726-2.588-.783-5.27-3.371-5.994-9.074-2.545-18.817-1.655-26.997 2.44z"/><path d="m60.2 344.583c-2.293 1.401-3.015 4.394-1.61 6.685 4.055 6.628 9.254 13.296 15.459 19.82 1.827 1.927 4.902 2.042 6.875.173 1.942-1.849 2.023-4.926.171-6.873-5.731-6.03-10.512-12.152-14.215-18.196-1.4-2.29-4.401-3.014-6.68-1.609z"/><path d="m106.877 427.294c-4.23 4.825-12.006 12.281-16.76 16.66-1.975 1.821-2.099 4.895-.28 6.87 1.824 1.977 4.898 2.097 6.87.28 4.992-4.601 13.001-12.291 17.482-17.396 1.771-2.02 1.567-5.092-.451-6.863-2.009-1.766-5.081-1.572-6.861.449z"/><path d="m135.103 368.84h.076c2.649 0 4.819-2.127 4.862-4.786-.032-.824.435-11.028-2.046-24.974-.465-2.637-3.001-4.404-5.636-3.934-2.645.47-4.406 2.994-3.936 5.638 2.274 12.779 1.869 22.465 1.894 23.117-.043 2.686 2.099 4.896 4.786 4.939z"/><path d="m72.065 459.572c-5.873 4.795-12.231 9.728-18.901 14.666-2.16 1.598-2.616 4.641-1.016 6.799 1.605 2.168 4.65 2.607 6.799 1.016 6.794-5.028 13.275-10.058 19.272-14.951 2.08-1.697 2.388-4.76.688-6.839-1.695-2.08-4.753-2.398-6.842-.691z"/><path d="m122.573 394.866c.845-2.547-.532-5.301-3.081-6.146-7.359-2.448-14.343-5.731-20.758-9.759-2.284-1.431-5.28-.741-6.704 1.531-1.429 2.274-.745 5.275 1.529 6.702 7.074 4.442 14.766 8.06 22.866 10.752 2.521.847 5.294-.516 6.148-3.08z"/><path d="m56.882 298.196c-2.507-.966-5.322.275-6.291 2.777-3.243 8.371-3.594 17.526-1.761 26.498.535 2.648 3.117 4.326 5.731 3.796 2.63-.534 4.33-3.1 3.794-5.733-1.428-7.027-1.294-14.334 1.306-21.047.967-2.504-.277-5.32-2.779-6.291z"/><path d="m201.293 366.658c-6.367 7.039-11.575 11.91-16.893 15.799-2.165 1.586-2.635 4.627-1.054 6.794 1.586 2.162 4.622 2.642 6.799 1.054 5.868-4.294 11.533-9.576 18.355-17.123 1.804-1.992 1.648-5.066-.342-6.868-1.993-1.799-5.061-1.65-6.865.344z"/><path d="m28.722 503.117c3.39-2.248 6.775-4.52 10.146-6.818 2.217-1.512 2.792-4.537 1.277-6.756-1.51-2.217-4.529-2.787-6.756-1.277-3.333 2.274-6.68 4.522-10.042 6.747-2.236 1.481-2.849 4.499-1.367 6.737 1.488 2.247 4.516 2.845 6.742 1.367z"/></g></g><g id="Layer_1"/></svg>